<svg width="11" height="21" viewBox="0 0 11 21" fill="none" xmlns="http://www.w3.org/2000/svg">
<path d="M10.2 11.464L10.765 7.776H7.227V5.382C7.20225 5.10655 7.23978 4.82905 7.33681 4.57006C7.43384 4.31108 7.58788 4.07724 7.78752 3.88585C7.98717 3.69446 8.2273 3.55043 8.49015 3.46443C8.75301 3.37842 9.03184 3.35265 9.306 3.389H10.915V0.248997C9.97033 0.0965865 9.01579 0.0133685 8.059 0C5.144 0 3.24 1.766 3.24 4.963V7.775H0V11.463H3.239V20.379C3.89863 20.4824 4.56531 20.5342 5.233 20.534C5.90068 20.5342 6.56737 20.4824 7.227 20.379V11.463L10.2 11.464Z" fill="white"/>
</svg>
