<svg width="21" height="21" viewBox="0 0 21 21" fill="none" xmlns="http://www.w3.org/2000/svg">
<path d="M15.3772 3.59082C15.0646 3.59082 14.7647 3.71504 14.5436 3.93614C14.3225 4.15725 14.1982 4.45713 14.1982 4.76982C14.1981 4.92473 14.2285 5.07815 14.2877 5.22131C14.3469 5.36447 14.4337 5.49456 14.5432 5.60415C14.6527 5.71373 14.7827 5.80066 14.9258 5.85998C15.0689 5.91929 15.2223 5.94982 15.3772 5.94982C15.6899 5.94982 15.9898 5.82561 16.2109 5.6045C16.432 5.38339 16.5562 5.08351 16.5562 4.77082C16.5564 4.61591 16.526 4.46249 16.4668 4.31933C16.4076 4.17617 16.3208 4.04608 16.2113 3.93649C16.1018 3.82691 15.9718 3.73997 15.8287 3.68066C15.6856 3.62135 15.5322 3.59082 15.3772 3.59082Z" fill="white"/>
<path d="M10.1361 5.10303C8.82331 5.10435 7.56467 5.62637 6.63631 6.55454C5.70794 7.48272 5.18567 8.74126 5.18408 10.054C5.18567 11.3669 5.70791 12.6255 6.63625 13.5539C7.56458 14.4822 8.82322 15.0044 10.1361 15.006C11.449 15.0044 12.7076 14.4822 13.6359 13.5539C14.5643 12.6255 15.0865 11.3669 15.0881 10.054C15.0865 8.74126 14.5642 7.48272 13.6359 6.55454C12.7075 5.62637 11.4489 5.10435 10.1361 5.10303ZM10.1361 13.226C9.29489 13.2252 8.48838 12.8906 7.89366 12.2957C7.29894 11.7008 6.96461 10.8942 6.96408 10.053C6.96488 9.21201 7.29933 8.40566 7.89402 7.81096C8.48871 7.21627 9.29506 6.88182 10.1361 6.88103C10.9771 6.88182 11.7835 7.21627 12.3782 7.81096C12.9728 8.40566 13.3073 9.21201 13.3081 10.053C13.3076 10.8942 12.9732 11.7008 12.3785 12.2957C11.7838 12.8906 10.9773 13.2252 10.1361 13.226Z" fill="white"/>
<path d="M14.0681 20.108H6.03607C4.43499 20.1061 2.90003 19.4693 1.7679 18.3371C0.635768 17.205 -0.00107705 15.67 -0.00292969 14.069V6.04098C-0.00134169 4.43973 0.635388 2.90451 1.76755 1.77216C2.89971 0.639813 4.43482 0.00282968 6.03607 0.000976562H14.0641C15.6651 0.0028292 17.2001 0.639674 18.3322 1.7718C19.4644 2.90394 20.1012 4.4389 20.1031 6.03998V14.068C20.1015 15.6685 19.4653 17.2031 18.334 18.3354C17.2027 19.4676 15.6686 20.1051 14.0681 20.108ZM6.03607 1.89297C4.93662 1.8943 3.88259 2.33164 3.10516 3.10907C2.32773 3.88649 1.8904 4.94053 1.88907 6.03998V14.068C1.88881 15.1685 2.32544 16.224 3.10304 17.0028C3.88064 17.7815 4.93558 18.2197 6.03607 18.221H14.0641C15.1638 18.2199 16.2182 17.7827 16.996 17.0053C17.7738 16.2279 18.2115 15.1737 18.2131 14.074V6.04597C18.2115 4.94626 17.7738 3.89208 16.996 3.11465C16.2182 2.33722 15.1638 1.90003 14.0641 1.89898L6.03607 1.89297Z" fill="white"/>
</svg>
