<svg width="253" height="44" viewBox="0 0 253 44" fill="none" xmlns="http://www.w3.org/2000/svg">
<path d="M4.97257 5.04929C3.75011 5.2549 2.64439 5.83061 1.75158 6.7216C1.09227 7.38641 0.810695 7.79763 0.446703 8.65434C-0.0271746 9.74408 0.000296534 9.045 0.000296534 21.4502C0.000296534 33.5881 -0.013439 33.1084 0.378025 34.1364C0.645868 34.8561 1.05794 35.5003 1.6417 36.1103C2.4727 36.9807 3.36551 37.5016 4.54677 37.8169L5.1168 37.9676L16.0709 37.9951C23.8658 38.0088 27.2242 37.9951 27.7049 37.9402C29.1334 37.7757 30.2872 37.2343 31.2762 36.2542C32.011 35.5277 32.4437 34.8218 32.8008 33.7595L33 33.1769V21.5256V9.8743L32.842 9.33286C32.2651 7.33843 30.768 5.83747 28.742 5.20007L28.1239 5.00817L16.7234 5.00132C10.4531 4.99446 5.16487 5.01502 4.97257 5.04929ZM12.2868 17.4065C14.6012 19.6271 16.4761 21.4708 16.4692 21.4982C16.4555 21.5256 14.5531 23.3692 12.2387 25.5967L8.02187 29.6472L6.92989 28.5986C6.33239 28.0298 5.83791 27.5226 5.84478 27.4883C5.84478 27.4472 7.23894 26.0902 8.93528 24.4727C10.6248 22.8484 12.0121 21.505 12.0189 21.4845C12.0189 21.4571 10.6316 20.1 8.92842 18.4688C7.23207 16.8377 5.83791 15.4875 5.83791 15.4669C5.83791 15.3778 7.93946 13.3354 8.00813 13.3491C8.05621 13.3628 9.97919 15.1859 12.2868 17.4065ZM27.2654 28.3793V29.6472H23.2821H19.2988V28.3793V27.1114H23.2821H27.2654V28.3793Z" fill="white"/>
<path d="M52.5802 35H43.6107V8.53086H52.7612C55.3891 8.53086 57.6466 9.06076 59.5336 10.1206C61.4291 11.1717 62.8853 12.6839 63.902 14.657C64.9187 16.6301 65.4271 18.991 65.4271 21.7396C65.4271 24.4968 64.9144 26.8663 63.8891 28.848C62.8724 30.8297 61.4033 32.3505 59.4819 33.4103C57.5691 34.4701 55.2685 35 52.5802 35ZM48.4057 30.8513H52.3476C54.1915 30.8513 55.7295 30.5152 56.9616 29.8432C58.1937 29.1625 59.12 28.1501 59.7404 26.8059C60.3607 25.4532 60.6709 23.7644 60.6709 21.7396C60.6709 19.7148 60.3607 18.0346 59.7404 16.6991C59.12 15.3549 58.2024 14.3511 56.9875 13.6877C55.7812 13.0156 54.282 12.6796 52.4898 12.6796H48.4057V30.8513ZM69.4122 35V15.1481H74.0908V35H69.4122ZM71.7644 12.3306C71.0234 12.3306 70.3858 12.0851 69.8516 11.5939C69.3174 11.0942 69.0503 10.4954 69.0503 9.79745C69.0503 9.09092 69.3174 8.49209 69.8516 8.00096C70.3858 7.50122 71.0234 7.25135 71.7644 7.25135C72.514 7.25135 73.1516 7.50122 73.6772 8.00096C74.2114 8.49209 74.4785 9.09092 74.4785 9.79745C74.4785 10.4954 74.2114 11.0942 73.6772 11.5939C73.1516 12.0851 72.514 12.3306 71.7644 12.3306ZM87.1715 42.858C85.4913 42.858 84.0481 42.6297 82.8418 42.173C81.6355 41.725 80.6662 41.1218 79.9338 40.3636C79.2014 39.6054 78.6931 38.7653 78.4087 37.8434L82.6221 36.8223C82.8116 37.2101 83.0873 37.5935 83.4492 37.9726C83.8111 38.3603 84.2979 38.6791 84.9097 38.929C85.5301 39.1875 86.3098 39.3167 87.249 39.3167C88.5759 39.3167 89.6745 38.9936 90.5447 38.3474C91.415 37.7098 91.8501 36.6586 91.8501 35.1939V31.4329H91.6174C91.3762 31.9154 91.0229 32.4108 90.5576 32.9192C90.101 33.4275 89.4935 33.854 88.7353 34.1987C87.9857 34.5433 87.0422 34.7157 85.9049 34.7157C84.3798 34.7157 82.9969 34.3581 81.7561 33.6429C80.524 32.9192 79.5418 31.8421 78.8094 30.4118C78.0856 28.9729 77.7237 27.1721 77.7237 25.0095C77.7237 22.8295 78.0856 20.99 78.8094 19.4907C79.5418 17.9829 80.5283 16.8412 81.7691 16.0658C83.0098 15.2817 84.3927 14.8897 85.9178 14.8897C87.081 14.8897 88.0374 15.0878 88.787 15.4842C89.5452 15.8719 90.1484 16.3415 90.5964 16.8929C91.0445 17.4358 91.3848 17.9484 91.6174 18.4309H91.8759V15.1481H96.4899V35.3231C96.4899 37.0205 96.085 38.425 95.275 39.5365C94.4651 40.648 93.3579 41.4794 91.9535 42.0309C90.549 42.5823 88.955 42.858 87.1715 42.858ZM87.2102 31.0451C88.2011 31.0451 89.0455 30.8039 89.7434 30.3214C90.4413 29.8389 90.9712 29.1453 91.3331 28.2405C91.695 27.3358 91.8759 26.2502 91.8759 24.9836C91.8759 23.7342 91.695 22.64 91.3331 21.7008C90.9798 20.7616 90.4542 20.0336 89.7563 19.5166C89.067 18.991 88.2183 18.7282 87.2102 18.7282C86.1677 18.7282 85.2974 18.9996 84.5995 19.5424C83.9016 20.0853 83.376 20.8306 83.0227 21.7784C82.6695 22.7175 82.4928 23.7859 82.4928 24.9836C82.4928 26.1985 82.6695 27.2626 83.0227 28.1759C83.3846 29.0806 83.9145 29.7872 84.6124 30.2955C85.319 30.7953 86.1849 31.0451 87.2102 31.0451ZM100.921 35V15.1481H105.6V35H100.921ZM103.273 12.3306C102.532 12.3306 101.895 12.0851 101.36 11.5939C100.826 11.0942 100.559 10.4954 100.559 9.79745C100.559 9.09092 100.826 8.49209 101.36 8.00096C101.895 7.50122 102.532 7.25135 103.273 7.25135C104.023 7.25135 104.66 7.50122 105.186 8.00096C105.72 8.49209 105.987 9.09092 105.987 9.79745C105.987 10.4954 105.72 11.0942 105.186 11.5939C104.66 12.0851 104.023 12.3306 103.273 12.3306ZM119.96 15.1481V18.767H108.547V15.1481H119.96ZM111.365 10.392H116.044V29.0289C116.044 29.6579 116.138 30.1404 116.328 30.4765C116.526 30.8039 116.785 31.0279 117.103 31.1485C117.422 31.2692 117.775 31.3295 118.163 31.3295C118.456 31.3295 118.723 31.3079 118.965 31.2649C119.214 31.2218 119.404 31.183 119.533 31.1485L120.322 34.8061C120.072 34.8923 119.714 34.9871 119.249 35.0905C118.792 35.1939 118.232 35.2542 117.569 35.2714C116.397 35.3059 115.341 35.1292 114.402 34.7415C113.463 34.3452 112.718 33.7334 112.166 32.9062C111.623 32.0791 111.356 31.0451 111.365 29.8044V10.392ZM129.221 35.4007C127.963 35.4007 126.83 35.1766 125.822 34.7286C124.823 34.2719 124.03 33.5999 123.444 32.7124C122.867 31.8249 122.578 30.7306 122.578 29.4296C122.578 28.3095 122.785 27.3832 123.198 26.6508C123.612 25.9185 124.176 25.3326 124.892 24.8931C125.607 24.4537 126.412 24.122 127.308 23.898C128.213 23.6653 129.148 23.4973 130.113 23.3939C131.276 23.2733 132.22 23.1656 132.943 23.0708C133.667 22.9674 134.193 22.8123 134.52 22.6055C134.856 22.3901 135.024 22.0584 135.024 21.6103V21.5328C135.024 20.5592 134.736 19.8052 134.158 19.271C133.581 18.7368 132.75 18.4697 131.664 18.4697C130.518 18.4697 129.609 18.7196 128.937 19.2193C128.273 19.7191 127.825 20.3093 127.593 20.99L123.224 20.3696C123.569 19.1633 124.138 18.1552 124.93 17.3453C125.723 16.5267 126.692 15.915 127.838 15.51C128.984 15.0965 130.251 14.8897 131.638 14.8897C132.594 14.8897 133.547 15.0017 134.494 15.2257C135.442 15.4497 136.308 15.8202 137.092 16.3372C137.876 16.8455 138.505 17.5392 138.979 18.418C139.462 19.2969 139.703 20.3954 139.703 21.7137V35H135.205V32.273H135.05C134.766 32.8244 134.365 33.3414 133.848 33.8239C133.34 34.2978 132.698 34.6812 131.922 34.9742C131.156 35.2585 130.255 35.4007 129.221 35.4007ZM130.436 31.9628C131.375 31.9628 132.189 31.7775 132.879 31.407C133.568 31.0279 134.098 30.5282 134.468 29.9078C134.848 29.2874 135.037 28.611 135.037 27.8787V25.5394C134.891 25.66 134.641 25.772 134.288 25.8754C133.943 25.9788 133.555 26.0693 133.124 26.1468C132.694 26.2243 132.267 26.2933 131.845 26.3536C131.423 26.4139 131.056 26.4656 130.746 26.5087C130.048 26.6035 129.424 26.7586 128.872 26.974C128.321 27.1894 127.886 27.4909 127.567 27.8787C127.248 28.2578 127.089 28.7489 127.089 29.352C127.089 30.2137 127.403 30.8642 128.032 31.3036C128.661 31.7431 129.462 31.9628 130.436 31.9628ZM148.722 8.53086V35H144.043V8.53086H148.722ZM176.425 15.8073C176.304 14.6786 175.796 13.7997 174.899 13.1707C174.012 12.5417 172.857 12.2272 171.436 12.2272C170.436 12.2272 169.579 12.378 168.864 12.6796C168.149 12.9812 167.601 13.3904 167.222 13.9074C166.843 14.4244 166.649 15.0146 166.641 15.678C166.641 16.2295 166.766 16.7077 167.016 17.1127C167.274 17.5176 167.623 17.8623 168.062 18.1466C168.502 18.4223 168.989 18.655 169.523 18.8445C170.057 19.0341 170.596 19.1935 171.138 19.3227L173.62 19.9431C174.619 20.1757 175.58 20.4902 176.502 20.8866C177.433 21.2829 178.264 21.7827 178.996 22.3858C179.737 22.9889 180.323 23.717 180.754 24.57C181.185 25.423 181.4 26.4225 181.4 27.5685C181.4 29.1194 181.004 30.4851 180.211 31.6655C179.419 32.8373 178.273 33.755 176.773 34.4184C175.283 35.0732 173.478 35.4007 171.358 35.4007C169.299 35.4007 167.511 35.0819 165.995 34.4443C164.487 33.8066 163.306 32.8761 162.453 31.6526C161.609 30.4291 161.152 28.9385 161.083 27.1807H165.801C165.87 28.1027 166.154 28.8695 166.654 29.4813C167.153 30.093 167.804 30.5497 168.605 30.8513C169.415 31.1528 170.32 31.3036 171.319 31.3036C172.362 31.3036 173.275 31.1485 174.059 30.8383C174.852 30.5195 175.472 30.0801 175.92 29.5201C176.369 28.9514 176.597 28.2879 176.605 27.5297C176.597 26.8404 176.394 26.2717 175.998 25.8237C175.602 25.367 175.046 24.9879 174.331 24.6863C173.624 24.3762 172.797 24.1004 171.849 23.8592L168.838 23.0837C166.658 22.5237 164.935 21.675 163.668 20.5376C162.41 19.3917 161.781 17.8709 161.781 15.9753C161.781 14.4158 162.203 13.0501 163.048 11.8783C163.901 10.7065 165.06 9.79745 166.524 9.15123C167.989 8.4964 169.648 8.16898 171.5 8.16898C173.379 8.16898 175.024 8.4964 176.437 9.15123C177.859 9.79745 178.975 10.6979 179.785 11.8524C180.595 12.9984 181.013 14.3167 181.039 15.8073H176.425ZM195.017 15.1481V18.767H183.605V15.1481H195.017ZM186.423 10.392H191.101V29.0289C191.101 29.6579 191.196 30.1404 191.386 30.4765C191.584 30.8039 191.842 31.0279 192.161 31.1485C192.48 31.2692 192.833 31.3295 193.221 31.3295C193.514 31.3295 193.781 31.3079 194.022 31.2649C194.272 31.2218 194.462 31.183 194.591 31.1485L195.379 34.8061C195.129 34.8923 194.772 34.9871 194.307 35.0905C193.85 35.1939 193.29 35.2542 192.626 35.2714C191.455 35.3059 190.399 35.1292 189.46 34.7415C188.521 34.3452 187.775 33.7334 187.224 32.9062C186.681 32.0791 186.414 31.0451 186.423 29.8044V10.392ZM207.012 35.3877C205.074 35.3877 203.394 34.9612 201.972 34.1082C200.55 33.2552 199.447 32.0619 198.663 30.5282C197.888 28.9945 197.5 27.2023 197.5 25.1516C197.5 23.101 197.888 21.3045 198.663 19.7622C199.447 18.2198 200.55 17.0222 201.972 16.1692C203.394 15.3162 205.074 14.8897 207.012 14.8897C208.951 14.8897 210.631 15.3162 212.053 16.1692C213.475 17.0222 214.573 18.2198 215.349 19.7622C216.133 21.3045 216.525 23.101 216.525 25.1516C216.525 27.2023 216.133 28.9945 215.349 30.5282C214.573 32.0619 213.475 33.2552 212.053 34.1082C210.631 34.9612 208.951 35.3877 207.012 35.3877ZM207.038 31.6397C208.089 31.6397 208.968 31.351 209.675 30.7737C210.381 30.1878 210.907 29.4037 211.252 28.4215C211.605 27.4392 211.781 26.345 211.781 25.1387C211.781 23.9238 211.605 22.8252 211.252 21.843C210.907 20.8521 210.381 20.0637 209.675 19.4778C208.968 18.8919 208.089 18.599 207.038 18.599C205.961 18.599 205.065 18.8919 204.35 19.4778C203.643 20.0637 203.114 20.8521 202.76 21.843C202.416 22.8252 202.243 23.9238 202.243 25.1387C202.243 26.345 202.416 27.4392 202.76 28.4215C203.114 29.4037 203.643 30.1878 204.35 30.7737C205.065 31.351 205.961 31.6397 207.038 31.6397ZM220.132 35V15.1481H224.668V18.4568H224.875C225.237 17.3108 225.857 16.4277 226.736 15.8073C227.624 15.1783 228.636 14.8638 229.773 14.8638C230.032 14.8638 230.321 14.8767 230.639 14.9026C230.967 14.9198 231.238 14.95 231.454 14.9931V19.2969C231.255 19.2279 230.941 19.1676 230.51 19.1159C230.088 19.0556 229.679 19.0255 229.282 19.0255C228.429 19.0255 227.662 19.2107 226.982 19.5812C226.31 19.9431 225.78 20.4471 225.392 21.0934C225.004 21.7396 224.81 22.4849 224.81 23.3293V35H220.132ZM242.169 35.3877C240.179 35.3877 238.46 34.9742 237.012 34.147C235.573 33.3112 234.466 32.1308 233.691 30.6057C232.915 29.072 232.527 27.2669 232.527 25.1904C232.527 23.1483 232.915 21.3562 233.691 19.8139C234.475 18.2629 235.569 17.0566 236.973 16.195C238.378 15.3248 240.028 14.8897 241.923 14.8897C243.147 14.8897 244.302 15.0878 245.387 15.4842C246.481 15.8719 247.447 16.4751 248.282 17.2936C249.127 18.1121 249.79 19.1547 250.273 20.4213C250.755 21.6793 250.996 23.1785 250.996 24.919V26.3536H234.725V23.2H246.512C246.503 22.3039 246.309 21.5069 245.93 20.809C245.551 20.1025 245.021 19.5467 244.34 19.1418C243.668 18.7368 242.884 18.5343 241.988 18.5343C241.032 18.5343 240.192 18.767 239.468 19.2323C238.744 19.6889 238.18 20.2921 237.775 21.0417C237.378 21.7827 237.176 22.5969 237.167 23.4844V26.2373C237.167 27.3918 237.378 28.3827 237.801 29.2099C238.223 30.0284 238.813 30.6574 239.571 31.0968C240.329 31.5276 241.217 31.7431 242.234 31.7431C242.914 31.7431 243.53 31.6483 244.082 31.4587C244.633 31.2605 245.111 30.9719 245.516 30.5928C245.921 30.2137 246.227 29.7441 246.434 29.184L250.803 29.6752C250.527 30.8297 250.001 31.8378 249.226 32.6995C248.459 33.5525 247.477 34.2159 246.279 34.6898C245.081 35.1551 243.711 35.3877 242.169 35.3877Z" fill="white"/>
</svg>
